<svg width="160" height="56" viewBox="0 0 160 56" fill="none" xmlns="http://www.w3.org/2000/svg">
<rect x="120" width="40" height="40" rx="20" fill="#EEF3FD"/>
<path d="M134.347 14.5981C134.347 15.8823 133.277 16.9234 131.958 16.9234C130.638 16.9234 129.568 15.8823 129.568 14.5981C129.568 13.3138 130.638 12.2727 131.958 12.2727C133.277 12.2727 134.347 13.3138 134.347 14.5981Z" fill="#CDD9F1"/>
<path d="M150.406 27H129.595C128.451 27 127.68 25.862 128.131 24.8391L130.053 20.4734C130.43 19.617 131.493 19.2755 132.32 19.745L135.012 21.2731C135.324 21.4505 135.72 21.4006 135.976 21.1516L144.913 12.4547C145.74 11.6499 147.146 11.9577 147.539 13.0294L151.906 24.9284C152.276 25.9379 151.507 27 150.406 27Z" fill="#CDD9F1"/>
<rect y="50" width="104" height="6" rx="3" fill="#CDD9F1"/>
<rect y="38" width="104" height="6" rx="3" fill="#CDD9F1"/>
<rect y="26" width="104" height="6" rx="3" fill="#CDD9F1"/>
<rect width="62" height="6" rx="3" fill="#CDD9F1"/>
<rect y="10" width="86" height="6" rx="3" fill="#CDD9F1"/>
<circle cx="126" cy="50" r="6" fill="#CDD9F1"/>
<circle cx="140" cy="50" r="6" fill="#CDD9F1"/>
<circle cx="154" cy="50" r="6" fill="#CDD9F1"/>
</svg>
