<svg width="160" height="76" viewBox="0 0 160 76" fill="none" xmlns="http://www.w3.org/2000/svg">
<rect width="40" height="40" rx="20" fill="#EEF3FD"/>
<path d="M14.3472 14.5981C14.3472 15.8823 13.2774 16.9234 11.9577 16.9234C10.6381 16.9234 9.56832 15.8823 9.56832 14.5981C9.56832 13.3138 10.6381 12.2727 11.9577 12.2727C13.2774 12.2727 14.3472 13.3138 14.3472 14.5981Z" fill="#CDD9F1"/>
<path d="M30.4057 27H9.59467C8.45106 27 7.68003 25.862 8.13051 24.8391L10.0531 20.4734C10.4302 19.617 11.4929 19.2755 12.3199 19.745L15.0115 21.2731C15.3241 21.4505 15.7202 21.4006 15.976 21.1516L24.9126 12.4547C25.7395 11.6499 27.1458 11.9577 27.5392 13.0294L31.9058 24.9284C32.2764 25.9379 31.5073 27 30.4057 27Z" fill="#CDD9F1"/>
<rect x="56" width="61" height="6" rx="3" fill="#CDD9F1"/>
<rect x="56" y="12" width="69" height="6" rx="3" fill="#CDD9F1"/>
<rect x="56" y="28" width="80" height="6" rx="3" fill="#CDD9F1"/>
<rect x="56" y="40" width="80" height="6" rx="3" fill="#CDD9F1"/>
<rect x="56" y="52" width="80" height="6" rx="3" fill="#CDD9F1"/>
<circle cx="62" cy="70" r="6" fill="#CDD9F1"/>
<circle cx="76" cy="70" r="6" fill="#CDD9F1"/>
<circle cx="90" cy="70" r="6" fill="#CDD9F1"/>
</svg>
